<?xml version="1.0" encoding="utf-8"?>
<!-- Generator: Adobe Illustrator 16.0.3, SVG Export Plug-In . SVG Version: 6.00 Build 0)  -->
<svg version="1.2" baseProfile="tiny" id="Ebene_1" xmlns="http://www.w3.org/2000/svg" xmlns:xlink="http://www.w3.org/1999/xlink"
	 x="0px" y="0px" width="326px" height="328px" viewBox="35.5 34.5 326 328" xml:space="preserve">
<rect x="35.525" y="35.568" fill="#030202" width="326.715" height="326.875"/>
<path fill="#FFFFFF" d="M233.115,294.498v-69.621h38.574v73.449c0,5.211,1.191,8.922,3.578,11.133
	c2.398,2.215,5.602,3.32,9.605,3.32c4.012,0,7.242-1.105,9.688-3.32c2.445-2.211,3.684-5.922,3.684-11.133v-73.449h38.391v69.621
	c0,8.309-1.25,15.367-3.754,21.188c-2.496,5.82-6.012,10.547-10.512,14.211c-4.512,3.664-9.969,6.32-16.367,7.969
	c-6.402,1.673-13.449,2.5-21.129,2.5c-7.566,0-14.527-0.827-20.871-2.5c-6.34-1.647-11.801-4.305-16.359-7.969
	c-4.57-3.664-8.137-8.391-10.688-14.211C234.389,309.865,233.115,302.807,233.115,294.498z M164.986,311.947
	c0,0.77,0.379,1.16,1.164,1.16c0.547,0,0.832-0.392,0.832-1.16c1-7.316,2.281-15.313,3.84-24.012
	c1.566-8.695,3.109-17.172,4.676-25.431c1.559-8.241,3.062-15.754,4.504-22.5c1.449-6.771,2.562-11.797,3.348-15.129h36.066v112.5
	h-21.703v-94.715c0-0.56-0.398-0.832-1.172-0.832c-0.441,0-0.668,0.272-0.668,0.832c-0.887,4.422-1.84,9.383-2.836,14.87
	c-1.012,5.48-2.23,11.902-3.684,19.271c-1.445,7.37-3.195,15.983-5.25,25.836c-2.059,9.866-4.484,21.438-7.266,34.737h-22.551
	c-2.777-13.073-5.145-24.375-7.094-33.905c-1.957-9.521-3.652-17.88-5.098-25.091c-1.441-7.194-2.727-13.62-3.84-19.272
	c-1.105-5.648-2.223-11.133-3.34-16.445c0-0.559-0.391-0.832-1.172-0.832c-0.438,0-0.664,0.273-0.664,0.832v94.715h-19.867v-112.5
	h36.23c0.559,2.434,1.234,5.586,2.008,9.473c0.77,3.887,1.645,8.223,2.582,13.047c0.953,4.806,1.918,9.969,2.93,15.438
	c0.996,5.5,2,11.086,3.004,16.797c1.004,5.703,1.918,11.302,2.758,16.789C163.557,301.896,164.311,307.076,164.986,311.947z
	 M58.775,224.877h11.02v104.191h32.059v8.309H58.775V224.877z"/>
</svg>
