<?xml version="1.0" standalone="no"?>
<!DOCTYPE svg PUBLIC "-//W3C//DTD SVG 20010904//EN"
 "http://www.w3.org/TR/2001/REC-SVG-20010904/DTD/svg10.dtd">
<svg version="1.0" xmlns="http://www.w3.org/2000/svg"
 width="16.000000pt" height="16.000000pt" viewBox="0 0 16.000000 16.000000"
 preserveAspectRatio="xMidYMid meet">
<metadata>
Created by potrace 1.11, written by Peter Selinger 2001-2013
</metadata>
<g transform="translate(0.000000,16.000000) scale(0.000750,-0.000750)"
fill="#000000" stroke="none">
<path d="M0 10665 l0 -10665 10665 0 10665 0 0 10665 0 10665 -10665 0 -10665
0 0 -10665z m2240 -5100 l0 -3405 1045 0 1045 0 0 -265 0 -265 -1405 0 -1405
0 0 3670 0 3670 360 0 360 0 0 -3405z m5238 3218 c118 -543 383 -1914 551
-2858 178 -993 237 -1356 361 -2215 56 -387 72 -477 86 -487 23 -17 79 -17 92
0 6 7 25 112 42 233 76 538 157 1017 345 2049 257 1410 459 2417 666 3323 l33
142 1173 0 1173 0 0 -3670 0 -3670 -705 0 -705 0 0 3099 c0 2804 -1 3101 -16
3115 -18 19 -77 21 -92 4 -10 -13 -84 -390 -247 -1268 -176 -943 -358 -1846
-765 -3790 -127 -608 -234 -1117 -237 -1132 l-5 -28 -737 0 -737 0 -63 297
c-317 1505 -511 2451 -842 4108 -332 1663 -358 1786 -377 1808 -17 20 -72 23
-90 5 -9 -9 -12 -715 -12 -3115 l0 -3103 -645 0 -645 0 0 3670 0 3670 1179 0
1178 0 41 -187z m7942 -2279 c0 -2185 2 -2478 16 -2572 46 -312 164 -492 399
-608 130 -64 221 -85 398 -91 168 -6 256 4 392 48 123 39 205 89 301 184 111
109 160 209 207 415 l21 95 3 2498 3 2497 1250 0 1250 0 0 -2342 c0 -1462 -4
-2403 -10 -2503 -38 -606 -183 -1082 -453 -1494 -342 -519 -866 -870 -1562
-1045 -444 -111 -807 -151 -1360 -150 -463 0 -742 25 -1105 99 -936 190 -1563
624 -1934 1336 -176 338 -260 640 -318 1144 -8 71 -12 796 -15 2528 l-4 2427
1261 0 1260 0 0 -2466z"/>
</g>
</svg>
